# xmcd
#
# Track frame offsets:
# 150
# 15870
# 30256
# 44852
# 62116
# 81395
# 100540
# 120388
# 139156
# 158533
# 172857
# 188224
# 207827
#
# Disc length: 2978 seconds
#
#
# Revision: 0
# Processed by: cddbd v1.5.2PL0 Copyright (c) Steve Scherf et al.
# Submitted via: Nero 7, 9, 6, 0 
#
DISCID=9b0ba00d
DTITLE=Amanda Shaw - Pretty Runs Out
DYEAR=2008
DGENRE=Country
TTITLE0=Pretty Runs Out
TTITLE1=Chirmolito
TTITLE2=French Jig
TTITLE3=Brick Wall
TTITLE4=I Don't Want to be Your Friend
TTITLE5=Garden of Eden
TTITLE6=What's Wrong with You?
TTITLE7=McGee's Medley
TTITLE8=Wishing Me Away
TTITLE9=Gone
TTITLE10=Woulda Coulda Shoulda
TTITLE11=Reels: The Gaspe Reel/Sam's Slammer/Imogen's Ridge
TTITLE12=Easy on our Way Out
EXTD=
EXTT0=Pretty Runs Out
EXTT1=Chirmolito
EXTT2=French Jig
EXTT3=Brick Wall
EXTT4=I Don't Want to be Your Friend
EXTT5=Garden of Eden
EXTT6=What's Wrong with You?
EXTT7=McGee's Medley
EXTT8=Wishing Me Away
EXTT9=Gone
EXTT10=Woulda Coulda Shoulda
EXTT11=Reels: The Gaspe Reel/Sam's Slammer/Imogen's Ridge
EXTT12=Easy on our Way Out
PLAYORDER=
